<?xml version="1.0" standalone="no"?>
<!DOCTYPE svg PUBLIC "-//W3C//DTD SVG 20010904//EN"
 "http://www.w3.org/TR/2001/REC-SVG-20010904/DTD/svg10.dtd">
<svg version="1.0" xmlns="http://www.w3.org/2000/svg"
 width="400.000000pt" height="400.000000pt" viewBox="0 0 400.000000 400.000000"
 preserveAspectRatio="xMidYMid meet">
<metadata>
Created by potrace 1.11, written by Peter Selinger 2001-2013
</metadata>
<g transform="translate(0.000000,400.000000) scale(0.100000,-0.100000)"
fill="#000000" stroke="none">
<path d="M2093 2731 c-30 -19 -38 -35 -34 -68 2 -16 14 -17 -124 7 -229 39
-350 24 -625 -78 -74 -28 -155 -53 -180 -57 -49 -7 -53 -5 -186 97 -84 65
-142 82 -274 82 -136 0 -208 -22 -270 -84 -103 -103 -89 -314 27 -421 24 -22
46 -39 49 -36 2 2 -7 24 -20 48 -58 105 -71 240 -31 323 53 110 249 160 375
96 24 -12 84 -60 131 -106 48 -46 96 -84 106 -84 49 0 149 37 268 100 187 98
248 115 415 114 181 0 278 -19 940 -179 495 -120 595 -139 685 -132 77 7 240
46 295 70 34 16 33 16 -55 10 -80 -5 -88 -4 -71 9 24 19 15 61 -17 83 -40 26
-79 28 -115 5 -58 -36 -61 -94 -5 -103 16 -2 -10 -5 -57 -5 -47 -1 -95 1 -107
4 -19 5 -20 9 -11 30 10 20 8 29 -9 52 -32 43 -68 57 -114 43 -42 -13 -75 -51
-65 -76 7 -19 -16 -19 -99 -2 -36 8 -55 16 -47 20 15 10 16 51 2 78 -16 29
-68 52 -105 45 -41 -8 -79 -48 -72 -76 6 -24 11 -24 -90 -4 -81 16 -82 17 -67
39 29 45 -27 115 -93 115 -45 0 -98 -49 -88 -81 6 -19 4 -21 -16 -16 -13 3
-43 9 -66 13 -42 6 -53 17 -33 29 18 11 10 44 -17 75 -37 40 -86 48 -130 21z"/>
<path d="M1195 2411 c-63 -29 -80 -54 -79 -120 0 -37 7 -69 22 -96 l21 -40 1
70 c0 95 14 138 56 174 39 35 36 37 -21 12z"/>
<path d="M250 2209 c-220 -166 -268 -277 -148 -341 40 -21 55 -23 198 -23 123
0 178 5 265 24 171 36 323 76 533 142 287 90 469 131 732 165 l105 13 -125 -5
c-261 -11 -458 -41 -690 -106 -427 -118 -528 -139 -681 -140 -118 -1 -202 18
-245 55 -23 20 -26 28 -20 60 4 20 25 59 49 88 23 28 53 64 66 80 13 16 22 29
20 29 -2 0 -29 -19 -59 -41z"/>
<path d="M1630 2013 c-180 -19 -567 -111 -860 -204 l-165 -52 -191 -5 -191 -4
1 -39 c0 -22 3 -39 6 -39 3 0 43 7 90 14 216 35 453 29 720 -20 193 -36 303
-76 577 -212 325 -161 454 -202 638 -202 182 0 338 49 785 247 387 171 511
221 740 299 l184 62 -99 30 c-411 125 -808 155 -1415 106 -225 -18 -403 -14
-510 10 -60 14 -221 19 -310 9z"/>
</g>
</svg>
